PathFileType	4	(x/y/z)	S01_M20_T12.trc
DataRate	CameraRate	NumFrames	NumMarkers	Units	OrigDataRate	OrigDataStartFrame	OrigNumFrames
240	240	4	51	mm	240	55	432
Frame#	Time	Sternum			R.Acromium			L.Acromium			Top.Head			R.ASIS			L.ASIS			R.PSIS			L.PSIS			R.Great.Tro			L.Great.Tro			R.Iliac.Crest			L.Iliac.Crest			V.Sacral			R.Thigh.Upper.Post			R.Thigh.Lower.Ant			R.Thigh.Lower.Post			R.Thigh.Upper.Ant			R.Knee.Lat			R.Knee.Med			R.Shank.Upper.Post			R.Shank.Lower.Ant			R.Shank.Lower.Post			R.Shank.Upper.Ant			R.Ankle.Lat			R.Ankle.Med			R.Heel.Upper			R.Heel.Med			R.Heel.Lat			R.Toe.Lat			R.Toe.Med			R.Toe.Tip			L.Thigh.Upper.Post			L.Thigh.Lower.Ant			L.Thigh.Lower.Post			L.Thigh.Upper.Ant			L.Knee.Lat			L.Knee.Med			L.Shank.Upper.Post			L.Shank.Lower.Ant			L.Shank.Lower.Post			L.Shank.Upper.Ant			L.Ankle.Lat			L.Ankle.Med			L.Heel.Upper			L.Heel.Med			L.Heel.Lat			L.Toe.Lat			L.Toe.Med			L.Toe.Tip			Cervical.Spine			Back			
		X1	Y1	Z1	X2	Y2	Z2	X3	Y3	Z3	X4	Y4	Z4	X5	Y5	Z5	X6	Y6	Z6	X7	Y7	Z7	X8	Y8	Z8	X9	Y9	Z9	X10	Y10	Z10	X11	Y11	Z11	X12	Y12	Z12	X13	Y13	Z13	X14	Y14	Z14	X15	Y15	Z15	X16	Y16	Z16	X17	Y17	Z17	X18	Y18	Z18	X19	Y19	Z19	X20	Y20	Z20	X21	Y21	Z21	X22	Y22	Z22	X23	Y23	Z23	X24	Y24	Z24	X25	Y25	Z25	X26	Y26	Z26	X27	Y27	Z27	X28	Y28	Z28	X29	Y29	Z29	X30	Y30	Z30	X31	Y31	Z31	X32	Y32	Z32	X33	Y33	Z33	X34	Y34	Z34	X35	Y35	Z35	X36	Y36	Z36	X37	Y37	Z37	X38	Y38	Z38	X39	Y39	Z39	X40	Y40	Z40	X41	Y41	Z41	X42	Y42	Z42	X43	Y43	Z43	X44	Y44	Z44	X45	Y45	Z45	X46	Y46	Z46	X47	Y47	Z47	X48	Y48	Z48	X49	Y49	Z49	X50	Y50	Z50	X51	Y51	Z51	

55	0.225	-1029.4	1302.1	265.37	-1147.2	1556.7	431.63	-1155.2	1564.8	103.56	-1088	1869.3	255.95	-1086.9	1059.3	427.87	-1067	1041.2	165.34	-1316.6	1092.2	327.69	-1319.3	1090.7	224.32	-1162.5	1014.1	515.59	-1174.7	989.66	87.589	-1175.4	1161.9	485.76	-1171.3	1121.4	83.894	-1332.7	1056	274.48	-1051.2	720.68	517	-955.57	683.01	501.81	-1011.3	641.35	500.98	-993.67	765.21	515.4	-973.73	590.39	502.21	-947.71	592.44	357.54	-1047.1	440.55	509.84	-989.93	350.94	478.97	-1057.7	370.87	496.53	-983.73	422.36	497.46	-1075	167.49	461.04	-1025.9	172.8	376.35	-1133.9	137.58	390.55	-1111.8	108.62	364.69	-1130.2	106.96	426.79	-956.76	89.66	518.22	-901.78	96.07	404.22	-850.21	116.23	469.1	-1222	711.2	119.28	-1140.1	637.2	123.18	-1216.9	622.27	138.44	-1154.3	729.69	102.37	-1173.2	533.14	134.3	-1151.7	538.39	277.4	-1239.3	395.67	120.07	-1185.1	302.55	148.89	-1245.2	317.5	126.27	-1178.1	378.68	137.62	-1275.4	107.57	169.25	-1252.5	118.59	268.19	-1348.7	77.693	213.72	-1339.7	52.271	246.82	-1340.1	52.678	184.72	-1127.7	39.898	157.73	-1106.5	47.01	279.66	-1041.1	55.163	231.19	-1231.8	1618.7	268.09	-1330.4	1309.1	285.29
56	0.22917	-1024.4	1301.5	265.53	-1142	1556.2	431.71	-1150.2	1564.3	103.63	-1082.5	1868.8	255.99	-1082	1058.7	427.98	-1062.6	1040.6	165.41	-1311.9	1091.8	327.99	-1314.7	1090.5	224.61	-1157.8	1013.7	515.78	-1170.5	989.32	87.701	-1170.5	1161.3	485.94	-1166.7	1120.9	84.1	-1328.1	1055.7	274.76	-1045.3	720.45	516.51	-949.58	683.31	501.02	-1005.1	641.36	500.17	-988.07	765.28	514.94	-966.92	590.74	501.2	-941.18	593.11	356.58	-1037.1	439.44	509.42	-978.25	351.04	478.31	-1046.3	369.59	496.28	-973.53	422.58	496.69	-1059.3	165.65	460.91	-1010.7	172.03	375.99	-1117.7	134.24	390.68	-1095.1	105.75	364.82	-1113.1	103.77	426.99	-938.98	90.724	517.62	-884.62	98.322	403.55	-833.25	119.76	468.18	-1219.6	711.31	119.32	-1138.2	636.77	123.21	-1215.1	622.36	138.44	-1151.8	729.35	102.41	-1171.9	532.91	134.31	-1150.4	538.07	277.5	-1238.6	395.61	120.11	-1184.6	302.34	148.9	-1244.7	317.46	126.31	-1177.4	378.45	137.63	-1275.4	107.53	169.34	-1252.5	118.52	268.26	-1348.7	77.603	213.79	-1339.7	52.143	246.87	-1340.1	52.62	184.77	-1127.7	39.895	157.72	-1106.6	46.983	279.67	-1041.1	55.229	231.17	-1226.6	1618.3	268.22	-1325.5	1308.7	285.55
57	0.23333	-1019.5	1300.8	265.7	-1136.8	1555.7	431.79	-1145.2	1563.7	103.71	-1077	1868.2	256.04	-1077.1	1058	428.1	-1058.2	1040	165.5	-1307.1	1091.4	328.31	-1310.2	1090.2	224.92	-1153.1	1013.2	515.99	-1166.2	988.97	87.816	-1165.7	1160.6	486.15	-1162.1	1120.5	84.31	-1323.4	1055.4	275.04	-1039.5	720.13	516.02	-943.64	683.5	500.21	-998.92	641.28	499.35	-982.51	765.24	514.46	-960.18	591.02	500.18	-934.74	593.69	355.59	-1027.2	438.32	509	-966.64	351.18	477.65	-1035	368.34	496.04	-963.4	422.81	495.92	-1043.6	163.93	460.79	-995.56	171.36	375.63	-1101.5	131.04	390.82	-1078.3	103.03	364.95	-1096	100.74	427.2	-921.3	91.933	517	-867.61	100.7	402.85	-816.48	123.4	467.22	-1217.1	711.39	119.36	-1136.2	636.32	123.22	-1213.2	622.43	138.43	-1149.2	728.98	102.43	-1170.6	532.68	134.31	-1149.1	537.74	277.59	-1237.8	395.55	120.14	-1184.1	302.13	148.89	-1244.2	317.42	126.35	-1176.7	378.21	137.63	-1275.4	107.49	169.42	-1252.5	118.45	268.32	-1348.8	77.52	213.86	-1339.8	52.025	246.92	-1340.2	52.567	184.81	-1127.7	39.888	157.71	-1106.7	46.953	279.68	-1041.1	55.283	231.15	-1221.4	1617.8	268.38	-1320.7	1308.3	285.85
58	0.2375	-1014.5	1300.1	265.89	-1131.6	1555.1	431.89	-1140.2	1563.1	103.8	-1071.5	1867.6	256.1	-1072.2	1057.3	428.25	-1053.7	1039.3	165.58	-1302.4	1091	328.64	-1305.6	1089.9	225.24	-1148.4	1012.6	516.19	-1161.9	988.6	87.933	-1160.9	1159.8	486.39	-1157.5	1120	84.522	-1318.8	1055	275.33	-1033.8	719.72	515.52	-937.77	683.59	499.41	-992.83	641.1	498.52	-977	765.1	513.98	-953.51	591.22	499.15	-928.38	594.17	354.58	-1017.4	437.21	508.56	-955.1	351.34	476.97	-1023.7	367.13	495.8	-953.35	423.03	495.16	-1027.9	162.34	460.67	-980.49	170.78	375.28	-1085.4	127.98	390.97	-1061.6	100.46	365.08	-1079	97.885	427.41	-903.75	93.289	516.38	-850.77	103.21	402.13	-799.92	127.15	466.23	-1214.6	711.45	119.38	-1134.2	635.85	123.22	-1211.3	622.47	138.41	-1146.6	728.6	102.44	-1169.2	532.43	134.3	-1147.8	537.4	277.66	-1237	395.49	120.17	-1183.6	301.91	148.88	-1243.6	317.38	126.39	-1175.9	377.97	137.63	-1275.4	107.46	169.51	-1252.5	118.39	268.38	-1348.8	77.444	213.92	-1339.8	51.918	246.96	-1340.2	52.52	184.85	-1127.8	39.876	157.7	-1106.7	46.92	279.69	-1041.2	55.324	231.13	-1216.2	1617.3	268.55	-1315.8	1307.9	286.16
